<svg height="512pt" viewBox="0 0 512 512" width="512pt" xmlns="http://www.w3.org/2000/svg" style="fill:#337ab7"><path d="m512 290.199219-72.234375-82.6875-183.765625-62.449219-183.765625 62.449219-72.234375 82.6875 65.808594 22.871093v137.867188l190.191406 60.609375 190.191406-60.609375v-137.867188zm-50.980469-13.671875-136.546875 47.125-40.460937-40.457032 142.457031-45.5zm-77.746093-56.527344-127.273438 40.648438-127.273438-40.652344 127.273438-43.25zm-297.742188 17.695312 142.457031 45.5-40.460937 40.457032-136.546875-47.125zm10.277344 85.800782 99.667968 34.636718 45.523438-45.523437v162.671875l-145.191406-46.269531zm320.382812 105.515625-145.191406 46.269531v-162.671875l45.523438 45.523437 99.667968-34.636718zm0 0"/><path d="m171 111.015625c7.847656 0 15.363281-6.898437 15-15-.363281-8.125-6.589844-15-15-15-7.847656 0-15.363281 6.898437-15 15 .363281 8.128906 6.589844 15 15 15zm0 0"/><path d="m341 111.015625c7.847656 0 15.363281-6.898437 15-15-.363281-8.125-6.589844-15-15-15-7.847656 0-15.363281 6.898437-15 15 .363281 8.128906 6.589844 15 15 15zm0 0"/><path d="m240.925781 0h30v28.328125h-30zm0 0"/><path d="m240.925781 58.871094h30v28.152344h-30zm0 0"/><path d="m271.105469 28.511719h28.328125v30h-28.328125zm0 0"/><path d="m212.410156 28.511719h28.375v30h-28.375zm0 0"/><path d="m415.46875 169.386719h30v-17.613281h17.617188v-30h-17.617188v-17.613282h-30v17.613282h-17.613281v30h17.613281zm0 0"/><path d="m62.140625 169.386719h30v-17.613281h17.613281v-30h-17.613281v-17.613282h-30v17.613282h-17.617187v30h17.617187zm0 0"/></svg>